<svg width="24" height="24" viewBox="0 0 24 24" fill="none" xmlns="http://www.w3.org/2000/svg">
<path d="M18.0072 0C18.8292 0 19.6033 0.157706 20.3297 0.473118C21.0562 0.78853 21.6918 1.21864 22.2366 1.76344C22.7814 2.30824 23.2115 2.94385 23.5269 3.67025C23.8423 4.39665 24 5.17085 24 5.99283V17.9785C24 18.8005 23.8423 19.5795 23.5269 20.3154C23.2115 21.0514 22.7814 21.6918 22.2366 22.2366C21.6918 22.7814 21.0562 23.2115 20.3297 23.5269C19.6033 23.8423 18.8292 24 18.0072 24H5.99283C5.17085 24 4.39665 23.8423 3.67025 23.5269C2.94385 23.2115 2.30824 22.7814 1.76344 22.2366C1.21864 21.6918 0.78853 21.0514 0.473118 20.3154C0.157706 19.5795 0 18.8005 0 17.9785V5.99283C0 5.17085 0.157706 4.39665 0.473118 3.67025C0.78853 2.94385 1.21864 2.30824 1.76344 1.76344C2.30824 1.21864 2.94385 0.78853 3.67025 0.473118C4.39665 0.157706 5.17085 0 5.99283 0H18.0072ZM16.4875 5.24731H13.9642C13.4671 5.24731 13.0084 5.33333 12.5878 5.50538C12.1673 5.67742 11.8041 5.90203 11.4982 6.17921C11.1924 6.45639 10.9486 6.77658 10.767 7.13978C10.5854 7.50299 10.4946 7.86619 10.4946 8.22939V9.7491H8.25806V12.7312H10.4946V18.7527H13.5054V12.7312H15.7419V9.7491H13.5054V9.00358C13.5054 8.75508 13.5962 8.56392 13.7778 8.43011C13.9594 8.2963 14.1171 8.22939 14.2509 8.22939H16.4875V5.24731Z" fill="#56AFFB"/>
</svg>
