<svg width="24" height="24" viewBox="0 0 24 24" fill="none" xmlns="http://www.w3.org/2000/svg">
<path d="M16.0573 12.0143C16.0573 11.6894 16.0096 11.3357 15.914 10.9534H17.1183V16.7455C17.1183 16.8984 17.0657 17.0227 16.9606 17.1183C16.8554 17.2139 16.7264 17.2616 16.5735 17.2616H7.13978C6.98686 17.2616 6.8626 17.2139 6.76703 17.1183C6.67145 17.0227 6.62366 16.8984 6.62366 16.7455V10.9534H7.79928C7.7037 11.3357 7.65591 11.6894 7.65591 12.0143C7.65591 12.5878 7.76583 13.1326 7.98566 13.6487C8.2055 14.1649 8.50657 14.6093 8.88889 14.9821C9.27121 15.3548 9.72043 15.6511 10.2366 15.871C10.7527 16.0908 11.2975 16.2007 11.871 16.2007C12.4444 16.2007 12.9892 16.0908 13.5054 15.871C14.0215 15.6511 14.4659 15.3548 14.8387 14.9821C15.2115 14.6093 15.5078 14.1649 15.7276 13.6487C15.9474 13.1326 16.0573 12.5878 16.0573 12.0143ZM11.871 14.6237C11.5078 14.6237 11.1637 14.5568 10.8387 14.4229C10.5137 14.2891 10.2318 14.1027 9.99283 13.8638C9.75388 13.6249 9.5675 13.3477 9.43369 13.0323C9.29988 12.7168 9.23297 12.3775 9.23297 12.0143C9.23297 11.6511 9.29988 11.307 9.43369 10.9821C9.5675 10.6571 9.75388 10.3751 9.99283 10.1362C10.2318 9.89725 10.5137 9.71087 10.8387 9.57706C11.1637 9.44325 11.5078 9.37634 11.871 9.37634C12.2342 9.37634 12.5735 9.44325 12.8889 9.57706C13.2043 9.71087 13.4815 9.89725 13.7204 10.1362C13.9594 10.3751 14.1458 10.6571 14.2796 10.9821C14.4134 11.307 14.4803 11.6511 14.4803 12.0143C14.4803 12.3775 14.4134 12.7168 14.2796 13.0323C14.1458 13.3477 13.9594 13.6249 13.7204 13.8638C13.4815 14.1027 13.2043 14.2891 12.8889 14.4229C12.5735 14.5568 12.2342 14.6237 11.871 14.6237ZM16.5735 6.76703C16.7264 6.76703 16.8554 6.81481 16.9606 6.91039C17.0657 7.00597 17.1183 7.13023 17.1183 7.28315V8.86022C17.1183 9.01314 17.0657 9.1374 16.9606 9.23297C16.8554 9.32855 16.7264 9.37634 16.5735 9.37634H14.9964C14.8435 9.37634 14.7192 9.32855 14.6237 9.23297C14.5281 9.1374 14.4803 9.01314 14.4803 8.86022V7.28315C14.4803 7.13023 14.5281 7.00597 14.6237 6.91039C14.7192 6.81481 14.8435 6.76703 14.9964 6.76703H16.5735ZM17.9785 0C18.8005 0 19.5795 0.157706 20.3154 0.473118C21.0514 0.78853 21.6918 1.21864 22.2366 1.76344C22.7814 2.30824 23.2115 2.94385 23.5269 3.67025C23.8423 4.39665 24 5.17085 24 5.99283V17.9785C24 18.8005 23.8423 19.5795 23.5269 20.3154C23.2115 21.0514 22.7814 21.6918 22.2366 22.2366C21.6918 22.7814 21.0514 23.2115 20.3154 23.5269C19.5795 23.8423 18.8005 24 17.9785 24H5.99283C5.17085 24 4.39665 23.8423 3.67025 23.5269C2.94385 23.2115 2.30824 22.7814 1.76344 22.2366C1.21864 21.6918 0.78853 21.0514 0.473118 20.3154C0.157706 19.5795 0 18.8005 0 17.9785V5.99283C0 5.17085 0.157706 4.39665 0.473118 3.67025C0.78853 2.94385 1.21864 2.30824 1.76344 1.76344C2.30824 1.21864 2.94385 0.78853 3.67025 0.473118C4.39665 0.157706 5.17085 0 5.99283 0H17.9785ZM18.6953 6.76703C18.6953 6.32736 18.5424 5.9546 18.2366 5.64875C17.9307 5.34289 17.5579 5.18996 17.1183 5.18996H6.62366C6.18399 5.18996 5.81123 5.34289 5.50538 5.64875C5.19952 5.9546 5.04659 6.32736 5.04659 6.76703V17.2616C5.04659 17.7013 5.19952 18.0741 5.50538 18.3799C5.81123 18.6858 6.18399 18.8387 6.62366 18.8387H17.1183C17.5579 18.8387 17.9307 18.6858 18.2366 18.3799C18.5424 18.0741 18.6953 17.7013 18.6953 17.2616V6.76703Z" fill="#123552"/>
</svg>
