<svg width="24" height="24" viewBox="0 0 24 24" fill="none" xmlns="http://www.w3.org/2000/svg">
<path d="M18.0072 0C18.8292 0 19.6033 0.157706 20.3297 0.473118C21.0562 0.78853 21.6918 1.21864 22.2366 1.76344C22.7814 2.30824 23.2115 2.94385 23.5269 3.67025C23.8423 4.39665 24 5.17085 24 5.99283V17.9785C24 18.8005 23.8423 19.5795 23.5269 20.3154C23.2115 21.0514 22.7814 21.6918 22.2366 22.2366C21.6918 22.7814 21.0562 23.2115 20.3297 23.5269C19.6033 23.8423 18.8292 24 18.0072 24H5.99283C5.17085 24 4.39665 23.8423 3.67025 23.5269C2.94385 23.2115 2.30824 22.7814 1.76344 22.2366C1.21864 21.6918 0.78853 21.0514 0.473118 20.3154C0.157706 19.5795 0 18.8005 0 17.9785V5.99283C0 5.17085 0.157706 4.39665 0.473118 3.67025C0.78853 2.94385 1.21864 2.30824 1.76344 1.76344C2.30824 1.21864 2.94385 0.78853 3.67025 0.473118C4.39665 0.157706 5.17085 0 5.99283 0H18.0072ZM17.7204 9.03226C18.2748 8.64994 18.7622 8.15293 19.1828 7.54122C18.9152 7.65591 18.6428 7.75149 18.3656 7.82796C18.0884 7.90442 17.8065 7.96177 17.5197 8C18.1505 7.59857 18.5711 7.05376 18.7814 6.36559C18.2079 6.72879 17.5962 6.96774 16.9462 7.08244C16.3728 6.47073 15.6559 6.16487 14.7957 6.16487C14.3943 6.16487 14.0167 6.24134 13.6631 6.39427C13.3094 6.54719 13.0036 6.75747 12.7455 7.02509C12.4875 7.29271 12.282 7.60335 12.129 7.95699C11.9761 8.31063 11.8996 8.68817 11.8996 9.08961C11.8996 9.2043 11.9044 9.31422 11.914 9.41935C11.9235 9.52449 11.9379 9.63441 11.957 9.7491C10.7527 9.69176 9.63441 9.39068 8.60215 8.84588C7.56989 8.30108 6.69056 7.58901 5.96416 6.70968C5.69654 7.14934 5.56272 7.6368 5.56272 8.17204C5.56272 8.66906 5.6822 9.12784 5.92115 9.54839C6.1601 9.96894 6.47073 10.313 6.85305 10.5806C6.62366 10.5806 6.39904 10.5472 6.17921 10.4803C5.95938 10.4134 5.74432 10.3321 5.53405 10.2366V10.2652C5.53405 10.9725 5.75866 11.589 6.20789 12.1147C6.65711 12.6404 7.21625 12.9797 7.8853 13.1326C7.61768 13.19 7.35962 13.2186 7.11111 13.2186H6.83871L6.56631 13.1613C6.75747 13.7539 7.09677 14.2366 7.58423 14.6093C8.07168 14.9821 8.64038 15.178 9.29032 15.1971C8.79331 15.5795 8.23417 15.8853 7.6129 16.1147C6.99164 16.3441 6.34648 16.4588 5.67742 16.4588C5.54361 16.4588 5.41935 16.454 5.30466 16.4444C5.18996 16.4349 5.07527 16.4205 4.96057 16.4014C5.61051 16.822 6.31302 17.147 7.0681 17.3763C7.82318 17.6057 8.61171 17.7204 9.43369 17.7204C10.7718 17.7204 11.957 17.4671 12.9892 16.9606C14.0215 16.454 14.8865 15.8041 15.5842 15.0108C16.282 14.2174 16.8124 13.3286 17.1756 12.3441C17.5388 11.3596 17.7204 10.3799 17.7204 9.40502V9.03226Z" fill="#123552"/>
</svg>
