<svg width="24" height="24" viewBox="0 0 24 24" fill="none" xmlns="http://www.w3.org/2000/svg">
<path d="M17.319 14.6523C17.4719 14.6523 17.5771 14.7001 17.6344 14.7957C17.7109 14.8722 17.7491 15.006 17.7491 15.1971V15.6846H16.8889V15.1971C16.8889 15.0251 16.9176 14.8913 16.9749 14.7957C17.0705 14.7001 17.1852 14.6523 17.319 14.6523ZM13.9642 14.6523C14.098 14.6523 14.1935 14.6906 14.2509 14.767C14.3274 14.8435 14.3656 14.9582 14.3656 15.1111V17.5197C14.3656 17.6726 14.3369 17.7778 14.2796 17.8351C14.2222 17.9116 14.1362 17.9498 14.0215 17.9498C13.945 17.9498 13.8686 17.9307 13.7921 17.8925C13.6965 17.8542 13.6201 17.7969 13.5627 17.7204V14.8244C13.6392 14.7479 13.7061 14.7001 13.7634 14.681C13.8017 14.6619 13.8686 14.6523 13.9642 14.6523ZM12.0143 0C13.6774 0 15.2354 0.315412 16.6882 0.946237C18.141 1.57706 19.4074 2.4325 20.4875 3.51254C21.5675 4.59259 22.4229 5.85902 23.0538 7.31183C23.6846 8.76464 24 10.3226 24 11.9857C24 13.6487 23.6846 15.2067 23.0538 16.6595C22.4229 18.1123 21.5675 19.3835 20.4875 20.4731C19.4074 21.5627 18.141 22.4229 16.6882 23.0538C15.2354 23.6846 13.6774 24 12.0143 24C10.3513 24 8.79331 23.6846 7.3405 23.0538C5.88769 22.4229 4.61649 21.5627 3.52688 20.4731C2.43728 19.3835 1.57706 18.1123 0.946237 16.6595C0.315412 15.2067 0 13.6487 0 11.9857C0 10.3226 0.315412 8.76464 0.946237 7.31183C1.57706 5.85902 2.43728 4.59259 3.52688 3.51254C4.61649 2.4325 5.88769 1.57706 7.3405 0.946237C8.79331 0.315412 10.3513 0 12.0143 0ZM8.63082 12.3011H5.24731V13.2186H6.39427V18.6093H7.48387V13.2186H8.63082V12.3011ZM8.6595 9.319L10.0932 5.24731H8.83154L8.08602 8.02867H8L7.19713 5.24731H5.96416L7.42652 9.43369V12.1864H8.6595V9.319ZM11.8423 13.9642H10.8674V17.491C10.8292 17.5484 10.7814 17.5962 10.724 17.6344L10.552 17.7491C10.4373 17.8065 10.3513 17.8351 10.2939 17.8351C10.1983 17.8351 10.1314 17.816 10.0932 17.7778C10.055 17.7395 10.0358 17.6535 10.0358 17.5197V13.9642H9.06093V17.8638C9.06093 18.1314 9.11828 18.3321 9.23297 18.4659C9.34767 18.6189 9.51016 18.6953 9.72043 18.6953C9.89247 18.6953 10.0836 18.638 10.2939 18.5233C10.4659 18.4468 10.6571 18.3035 10.8674 18.0932V18.6093H11.8423V13.9642ZM11.7563 12.3011C12.2724 12.3011 12.6643 12.1768 12.9319 11.9283C13.2186 11.6989 13.362 11.3548 13.362 10.8961V8.25806C13.362 7.89486 13.2186 7.57945 12.9319 7.31183C12.6643 7.06332 12.2915 6.93907 11.8136 6.93907C11.3166 6.93907 10.9247 7.05376 10.638 7.28315C10.3321 7.51254 10.1792 7.82796 10.1792 8.22939V10.8961C10.1792 11.3357 10.3226 11.6798 10.6093 11.9283C10.8769 12.1768 11.2593 12.3011 11.7563 12.3011ZM15.3692 15.0824C15.3692 14.7001 15.2832 14.4038 15.1111 14.1935C14.9773 14.0024 14.7479 13.9068 14.4229 13.9068C14.2509 13.9068 14.098 13.945 13.9642 14.0215C13.8112 14.0789 13.6774 14.184 13.5627 14.3369V12.3011H12.5591V18.6093H13.5627V18.2652C13.6201 18.3417 13.6822 18.4038 13.7491 18.4516C13.816 18.4994 13.8877 18.5424 13.9642 18.5806C14.098 18.638 14.27 18.6667 14.4803 18.6667C14.767 18.6667 14.9869 18.5806 15.1398 18.4086C15.2927 18.2174 15.3692 17.9689 15.3692 17.6631V15.0824ZM15.0251 12.2437C15.2545 12.2437 15.4648 12.1959 15.6559 12.1004C15.8471 12.0048 16.0573 11.8423 16.2867 11.6129V12.1864H17.3763V7.05376H16.2867V10.9534C16.2103 11.049 16.0956 11.1446 15.9427 11.2401C15.828 11.2975 15.7324 11.3262 15.6559 11.3262C15.5221 11.3262 15.4456 11.2975 15.4265 11.2401C15.3692 11.1828 15.3405 11.0968 15.3405 10.9821V7.05376H14.2509V11.3548C14.2509 11.6607 14.3178 11.8805 14.4516 12.0143C14.5472 12.1673 14.7384 12.2437 15.0251 12.2437ZM18.7527 15.2258C18.7527 14.767 18.6284 14.4229 18.3799 14.1935C18.1505 13.9642 17.8065 13.8495 17.3477 13.8495C16.908 13.8495 16.5544 13.9737 16.2867 14.2222C16.0191 14.4898 15.8853 14.8244 15.8853 15.2258V17.2903C15.8853 17.7491 16.0096 18.1027 16.2581 18.3513C16.5257 18.6189 16.8698 18.7527 17.2903 18.7527C17.7682 18.7527 18.1314 18.6284 18.3799 18.3799C18.6284 18.1505 18.7527 17.7873 18.7527 17.2903V17.0609H17.7491V17.2616C17.7491 17.5484 17.7204 17.73 17.6631 17.8065C17.5866 17.8829 17.4719 17.9211 17.319 17.9211C17.1278 17.9211 17.0131 17.8734 16.9749 17.7778C16.9176 17.7013 16.8889 17.5293 16.8889 17.2616V16.4014H18.7527V15.2258ZM11.7563 7.82796C11.8901 7.82796 12.0143 7.85663 12.129 7.91398C12.2055 7.99044 12.2437 8.08602 12.2437 8.20072V10.9821C12.2437 11.135 12.2055 11.2401 12.129 11.2975C12.0526 11.374 11.9283 11.4122 11.7563 11.4122C11.6033 11.4122 11.4982 11.374 11.4409 11.2975C11.3453 11.2401 11.2975 11.135 11.2975 10.9821V8.20072C11.2975 8.10514 11.3453 8.00956 11.4409 7.91398C11.5173 7.85663 11.6225 7.82796 11.7563 7.82796Z" fill="#123552"/>
</svg>
