<svg width="267" height="61" viewBox="0 0 267 61" fill="none" xmlns="http://www.w3.org/2000/svg">
<path d="M95.2919 47.27V48.572H92.7019V57H91.1059V48.572H88.5019V47.27H95.2919ZM103.656 49.286V57H102.06V56.09C101.808 56.4073 101.477 56.6593 101.066 56.846C100.665 57.0233 100.236 57.112 99.7782 57.112C99.1715 57.112 98.6255 56.986 98.1402 56.734C97.6642 56.482 97.2862 56.1087 97.0062 55.614C96.7355 55.1193 96.6002 54.522 96.6002 53.822V49.286H98.1822V53.584C98.1822 54.2747 98.3549 54.8067 98.7002 55.18C99.0455 55.544 99.5169 55.726 100.114 55.726C100.712 55.726 101.183 55.544 101.528 55.18C101.883 54.8067 102.06 54.2747 102.06 53.584V49.286H103.656ZM98.9662 48.32C98.7329 48.32 98.5322 48.2407 98.3642 48.082C98.2055 47.914 98.1262 47.7133 98.1262 47.48C98.1262 47.2467 98.2055 47.0507 98.3642 46.892C98.5322 46.724 98.7329 46.64 98.9662 46.64C99.1995 46.64 99.3955 46.724 99.5542 46.892C99.7222 47.0507 99.8062 47.2467 99.8062 47.48C99.8062 47.7133 99.7222 47.914 99.5542 48.082C99.3955 48.2407 99.1995 48.32 98.9662 48.32ZM101.374 48.32C101.141 48.32 100.94 48.2407 100.772 48.082C100.614 47.914 100.534 47.7133 100.534 47.48C100.534 47.2467 100.614 47.0507 100.772 46.892C100.94 46.724 101.141 46.64 101.374 46.64C101.608 46.64 101.804 46.724 101.962 46.892C102.13 47.0507 102.214 47.2467 102.214 47.48C102.214 47.7133 102.13 47.914 101.962 48.082C101.804 48.2407 101.608 48.32 101.374 48.32ZM107.12 50.406C107.353 50.014 107.661 49.7107 108.044 49.496C108.436 49.272 108.898 49.16 109.43 49.16V50.812H109.024C108.399 50.812 107.923 50.9707 107.596 51.288C107.279 51.6053 107.12 52.156 107.12 52.94V57H105.524V49.286H107.12V50.406ZM113.711 53.15L117.267 57H115.111L112.255 53.682V57H110.659V46.64H112.255V52.66L115.055 49.286H117.267L113.711 53.15ZM118.985 48.264C118.696 48.264 118.453 48.166 118.257 47.97C118.061 47.774 117.963 47.5313 117.963 47.242C117.963 46.9527 118.061 46.71 118.257 46.514C118.453 46.318 118.696 46.22 118.985 46.22C119.265 46.22 119.503 46.318 119.699 46.514C119.895 46.71 119.993 46.9527 119.993 47.242C119.993 47.5313 119.895 47.774 119.699 47.97C119.503 48.166 119.265 48.264 118.985 48.264ZM119.769 49.286V57H118.173V49.286H119.769ZM128.57 49.286L123.838 60.626H122.186L123.754 56.874L120.716 49.286H122.494L124.664 55.166L126.918 49.286H128.57ZM136.607 52.954C136.607 53.2433 136.588 53.5047 136.551 53.738H130.657C130.704 54.354 130.932 54.8487 131.343 55.222C131.754 55.5953 132.258 55.782 132.855 55.782C133.714 55.782 134.32 55.4227 134.675 54.704H136.397C136.164 55.4133 135.739 55.9967 135.123 56.454C134.516 56.902 133.76 57.126 132.855 57.126C132.118 57.126 131.455 56.9627 130.867 56.636C130.288 56.3 129.831 55.8333 129.495 55.236C129.168 54.6293 129.005 53.9293 129.005 53.136C129.005 52.3427 129.164 51.6473 129.481 51.05C129.808 50.4433 130.26 49.9767 130.839 49.65C131.427 49.3233 132.099 49.16 132.855 49.16C133.583 49.16 134.232 49.3187 134.801 49.636C135.37 49.9533 135.814 50.4013 136.131 50.98C136.448 51.5493 136.607 52.2073 136.607 52.954ZM134.941 52.45C134.932 51.862 134.722 51.3907 134.311 51.036C133.9 50.6813 133.392 50.504 132.785 50.504C132.234 50.504 131.763 50.6813 131.371 51.036C130.979 51.3813 130.746 51.8527 130.671 52.45H134.941ZM148.548 47.27L145.328 53.472V57H143.732V53.472L140.498 47.27H142.276L144.53 52.044L146.784 47.27H148.548ZM149.045 53.108C149.045 52.3333 149.203 51.6473 149.521 51.05C149.847 50.4527 150.286 49.9907 150.837 49.664C151.397 49.328 152.013 49.16 152.685 49.16C153.291 49.16 153.819 49.2813 154.267 49.524C154.724 49.7573 155.088 50.0513 155.359 50.406V49.286H156.969V57H155.359V55.852C155.088 56.216 154.719 56.5193 154.253 56.762C153.786 57.0047 153.254 57.126 152.657 57.126C151.994 57.126 151.387 56.958 150.837 56.622C150.286 56.2767 149.847 55.8007 149.521 55.194C149.203 54.578 149.045 53.8827 149.045 53.108ZM155.359 53.136C155.359 52.604 155.247 52.142 155.023 51.75C154.808 51.358 154.523 51.0593 154.169 50.854C153.814 50.6487 153.431 50.546 153.021 50.546C152.61 50.546 152.227 50.6487 151.873 50.854C151.518 51.05 151.229 51.344 151.005 51.736C150.79 52.1187 150.683 52.576 150.683 53.108C150.683 53.64 150.79 54.1067 151.005 54.508C151.229 54.9093 151.518 55.2173 151.873 55.432C152.237 55.6373 152.619 55.74 153.021 55.74C153.431 55.74 153.814 55.6373 154.169 55.432C154.523 55.2267 154.808 54.928 155.023 54.536C155.247 54.1347 155.359 53.668 155.359 53.136ZM160.423 50.42C160.694 50.0653 161.062 49.7667 161.529 49.524C161.996 49.2813 162.523 49.16 163.111 49.16C163.783 49.16 164.394 49.328 164.945 49.664C165.505 49.9907 165.944 50.4527 166.261 51.05C166.578 51.6473 166.737 52.3333 166.737 53.108C166.737 53.8827 166.578 54.578 166.261 55.194C165.944 55.8007 165.505 56.2767 164.945 56.622C164.394 56.958 163.783 57.126 163.111 57.126C162.523 57.126 162 57.0093 161.543 56.776C161.086 56.5333 160.712 56.2347 160.423 55.88V60.668H158.827V49.286H160.423V50.42ZM165.113 53.108C165.113 52.576 165.001 52.1187 164.777 51.736C164.562 51.344 164.273 51.05 163.909 50.854C163.554 50.6487 163.172 50.546 162.761 50.546C162.36 50.546 161.977 50.6487 161.613 50.854C161.258 51.0593 160.969 51.358 160.745 51.75C160.53 52.142 160.423 52.604 160.423 53.136C160.423 53.668 160.53 54.1347 160.745 54.536C160.969 54.928 161.258 55.2267 161.613 55.432C161.977 55.6373 162.36 55.74 162.761 55.74C163.172 55.74 163.554 55.6373 163.909 55.432C164.273 55.2173 164.562 54.9093 164.777 54.508C165.001 54.1067 165.113 53.64 165.113 53.108ZM167.545 53.108C167.545 52.3333 167.704 51.6473 168.021 51.05C168.348 50.4527 168.787 49.9907 169.337 49.664C169.897 49.328 170.513 49.16 171.185 49.16C171.792 49.16 172.319 49.2813 172.767 49.524C173.225 49.7573 173.589 50.0513 173.859 50.406V49.286H175.469V57H173.859V55.852C173.589 56.216 173.22 56.5193 172.753 56.762C172.287 57.0047 171.755 57.126 171.157 57.126C170.495 57.126 169.888 56.958 169.337 56.622C168.787 56.2767 168.348 55.8007 168.021 55.194C167.704 54.578 167.545 53.8827 167.545 53.108ZM173.859 53.136C173.859 52.604 173.747 52.142 173.523 51.75C173.309 51.358 173.024 51.0593 172.669 50.854C172.315 50.6487 171.932 50.546 171.521 50.546C171.111 50.546 170.728 50.6487 170.373 50.854C170.019 51.05 169.729 51.344 169.505 51.736C169.291 52.1187 169.183 52.576 169.183 53.108C169.183 53.64 169.291 54.1067 169.505 54.508C169.729 54.9093 170.019 55.2173 170.373 55.432C170.737 55.6373 171.12 55.74 171.521 55.74C171.932 55.74 172.315 55.6373 172.669 55.432C173.024 55.2267 173.309 54.928 173.523 54.536C173.747 54.1347 173.859 53.668 173.859 53.136ZM184.272 49.286L179.54 60.626H177.888L179.456 56.874L176.418 49.286H178.196L180.366 55.166L182.62 49.286H184.272ZM190.177 55.614H194.699V57H188.287V55.754L192.795 48.656H188.287V47.27H194.699V48.516L190.177 55.614ZM203.275 52.954C203.275 53.2433 203.257 53.5047 203.219 53.738H197.325C197.372 54.354 197.601 54.8487 198.011 55.222C198.422 55.5953 198.926 55.782 199.523 55.782C200.382 55.782 200.989 55.4227 201.343 54.704H203.065C202.832 55.4133 202.407 55.9967 201.791 56.454C201.185 56.902 200.429 57.126 199.523 57.126C198.786 57.126 198.123 56.9627 197.535 56.636C196.957 56.3 196.499 55.8333 196.163 55.236C195.837 54.6293 195.673 53.9293 195.673 53.136C195.673 52.3427 195.832 51.6473 196.149 51.05C196.476 50.4433 196.929 49.9767 197.507 49.65C198.095 49.3233 198.767 49.16 199.523 49.16C200.251 49.16 200.9 49.3187 201.469 49.636C202.039 49.9533 202.482 50.4013 202.799 50.98C203.117 51.5493 203.275 52.2073 203.275 52.954ZM201.609 52.45C201.6 51.862 201.39 51.3907 200.979 51.036C200.569 50.6813 200.06 50.504 199.453 50.504C198.903 50.504 198.431 50.6813 198.039 51.036C197.647 51.3813 197.414 51.8527 197.339 52.45H201.609ZM207.66 53.15L211.216 57H209.06L206.204 53.682V57H204.608V46.64H206.204V52.66L209.004 49.286H211.216L207.66 53.15ZM211.59 53.108C211.59 52.3333 211.749 51.6473 212.066 51.05C212.393 50.4527 212.831 49.9907 213.382 49.664C213.942 49.328 214.558 49.16 215.23 49.16C215.837 49.16 216.364 49.2813 216.812 49.524C217.269 49.7573 217.633 50.0513 217.904 50.406V49.286H219.514V57H217.904V55.852C217.633 56.216 217.265 56.5193 216.798 56.762C216.331 57.0047 215.799 57.126 215.202 57.126C214.539 57.126 213.933 56.958 213.382 56.622C212.831 56.2767 212.393 55.8007 212.066 55.194C211.749 54.578 211.59 53.8827 211.59 53.108ZM217.904 53.136C217.904 52.604 217.792 52.142 217.568 51.75C217.353 51.358 217.069 51.0593 216.714 50.854C216.359 50.6487 215.977 50.546 215.566 50.546C215.155 50.546 214.773 50.6487 214.418 50.854C214.063 51.05 213.774 51.344 213.55 51.736C213.335 52.1187 213.228 52.576 213.228 53.108C213.228 53.64 213.335 54.1067 213.55 54.508C213.774 54.9093 214.063 55.2173 214.418 55.432C214.782 55.6373 215.165 55.74 215.566 55.74C215.977 55.74 216.359 55.6373 216.714 55.432C217.069 55.2267 217.353 54.928 217.568 54.536C217.792 54.1347 217.904 53.668 217.904 53.136ZM231.575 50.168C231.575 50.6627 231.458 51.1293 231.225 51.568C230.992 52.0067 230.618 52.366 230.105 52.646C229.592 52.9167 228.934 53.052 228.131 53.052H226.367V57H224.771V47.27H228.131C228.878 47.27 229.508 47.4007 230.021 47.662C230.544 47.914 230.931 48.2593 231.183 48.698C231.444 49.1367 231.575 49.6267 231.575 50.168ZM228.131 51.75C228.738 51.75 229.19 51.6147 229.489 51.344C229.788 51.064 229.937 50.672 229.937 50.168C229.937 49.104 229.335 48.572 228.131 48.572H226.367V51.75H228.131ZM236.205 57.126C235.477 57.126 234.819 56.9627 234.231 56.636C233.643 56.3 233.181 55.8333 232.845 55.236C232.509 54.6293 232.341 53.9293 232.341 53.136C232.341 52.352 232.514 51.6567 232.859 51.05C233.204 50.4433 233.676 49.9767 234.273 49.65C234.87 49.3233 235.538 49.16 236.275 49.16C237.012 49.16 237.68 49.3233 238.277 49.65C238.874 49.9767 239.346 50.4433 239.691 51.05C240.036 51.6567 240.209 52.352 240.209 53.136C240.209 53.92 240.032 54.6153 239.677 55.222C239.322 55.8287 238.837 56.3 238.221 56.636C237.614 56.9627 236.942 57.126 236.205 57.126ZM236.205 55.74C236.616 55.74 236.998 55.642 237.353 55.446C237.717 55.25 238.011 54.956 238.235 54.564C238.459 54.172 238.571 53.696 238.571 53.136C238.571 52.576 238.464 52.1047 238.249 51.722C238.034 51.33 237.75 51.036 237.395 50.84C237.04 50.644 236.658 50.546 236.247 50.546C235.836 50.546 235.454 50.644 235.099 50.84C234.754 51.036 234.478 51.33 234.273 51.722C234.068 52.1047 233.965 52.576 233.965 53.136C233.965 53.9667 234.175 54.6107 234.595 55.068C235.024 55.516 235.561 55.74 236.205 55.74ZM243.145 50.406C243.378 50.014 243.686 49.7107 244.069 49.496C244.461 49.272 244.923 49.16 245.455 49.16V50.812H245.049C244.424 50.812 243.948 50.9707 243.621 51.288C243.304 51.6053 243.145 52.156 243.145 52.94V57H241.549V49.286H243.145V50.406ZM248.546 50.588V54.858C248.546 55.1473 248.611 55.3573 248.742 55.488C248.882 55.6093 249.115 55.67 249.442 55.67H250.422V57H249.162C248.443 57 247.893 56.832 247.51 56.496C247.127 56.16 246.936 55.614 246.936 54.858V50.588H246.026V49.286H246.936V47.368H248.546V49.286H250.422V50.588H248.546ZM251.123 53.108C251.123 52.3333 251.282 51.6473 251.599 51.05C251.926 50.4527 252.364 49.9907 252.915 49.664C253.475 49.328 254.091 49.16 254.763 49.16C255.37 49.16 255.897 49.2813 256.345 49.524C256.802 49.7573 257.166 50.0513 257.437 50.406V49.286H259.047V57H257.437V55.852C257.166 56.216 256.798 56.5193 256.331 56.762C255.864 57.0047 255.332 57.126 254.735 57.126C254.072 57.126 253.466 56.958 252.915 56.622C252.364 56.2767 251.926 55.8007 251.599 55.194C251.282 54.578 251.123 53.8827 251.123 53.108ZM257.437 53.136C257.437 52.604 257.325 52.142 257.101 51.75C256.886 51.358 256.602 51.0593 256.247 50.854C255.892 50.6487 255.51 50.546 255.099 50.546C254.688 50.546 254.306 50.6487 253.951 50.854C253.596 51.05 253.307 51.344 253.083 51.736C252.868 52.1187 252.761 52.576 252.761 53.108C252.761 53.64 252.868 54.1067 253.083 54.508C253.307 54.9093 253.596 55.2173 253.951 55.432C254.315 55.6373 254.698 55.74 255.099 55.74C255.51 55.74 255.892 55.6373 256.247 55.432C256.602 55.2267 256.886 54.928 257.101 54.536C257.325 54.1347 257.437 53.668 257.437 53.136ZM262.501 46.64V57H260.905V46.64H262.501ZM265.955 49.286V57H264.359V49.286H265.955Z" fill="white"/>
<path d="M102.462 10.92V16.4H95.0222V39H88.1822V16.4H80.7422V10.92H102.462ZM129.295 10.92L119.575 29.72V39H112.735V29.72L103.015 10.92H110.775L116.215 22.68L121.615 10.92H129.295ZM138.651 33.4H150.731V39H130.891V33.8L142.891 16.52H130.891V10.92H150.731V16.12L138.651 33.4ZM175.919 19.96C175.919 21.5867 175.546 23.08 174.799 24.44C174.052 25.7733 172.906 26.8533 171.359 27.68C169.812 28.5067 167.892 28.92 165.599 28.92H161.359V39H154.519V10.92H165.599C167.839 10.92 169.732 11.3067 171.279 12.08C172.826 12.8533 173.986 13.92 174.759 15.28C175.532 16.64 175.919 18.2 175.919 19.96ZM165.079 23.48C166.386 23.48 167.359 23.1733 167.999 22.56C168.639 21.9467 168.959 21.08 168.959 19.96C168.959 18.84 168.639 17.9733 167.999 17.36C167.359 16.7467 166.386 16.44 165.079 16.44H161.359V23.48H165.079Z" fill="white"/>
<g clip-path="url(#clip0_205_3791)">
<path d="M55.5 19H77.5L58.5 51H36.5L55.5 19Z" fill="#FF7A00"/>
<path d="M35.5 19H51.5L32.5 51H16.5L35.5 19Z" fill="#FF9736"/>
<path d="M19.5 19H31.5L12.5 51H0.5L19.5 19Z" fill="#FFBC7D"/>
</g>
<defs>
<clipPath id="clip0_205_3791">
<rect width="78" height="32" fill="white" transform="translate(0 19)"/>
</clipPath>
</defs>
</svg>
